SplineFontDB: 3.0
FontName: AyannaNarrowTamil-ExtraBold
FullName: AyannaNarrow
FamilyName: AyannaNarrow
OS2FamilyName: "ayanna-tamil tamil"
OS2StyleName: "regular"
Weight: ExtraBold
Copyright: Licensed under the SIL Open Font License 1.1 (see file OFL.txt)
Version: 2.5.0
ItalicAngle: 0
UnderlinePosition: -102
UnderlineWidth: 0
Ascent: 819
Descent: 205
InvalidEm: 0
UFOAscent: 819
UFODescent: -205
LayerCount: 2
Layer: 0 0 "Back" 1
Layer: 1 0 "Fore" 0
FSType: 0
OS2Version: 0
OS2_WeightWidthSlopeOnly: 0
OS2_UseTypoMetrics: 0
CreationTime: 1440916200
ModificationTime: 1441223097
PfmFamily: 16
TTFWeight: 400
TTFWidth: 5
LineGap: 0
VLineGap: 0
Panose: 2 0 6 0 0 0 0 0 0 0
OS2TypoAscent: 819
OS2TypoAOffset: 0
OS2TypoDescent: -205
OS2TypoDOffset: 0
OS2TypoLinegap: 0
OS2WinAscent: 535
OS2WinAOffset: 0
OS2WinDescent: 221
OS2WinDOffset: 0
HheadAscent: 541
HheadAOffset: 0
HheadDescent: -238
HheadDOffset: 0
OS2SubXSize: 861
OS2SubYSize: 799
OS2SubXOff: 0
OS2SubYOff: 246
OS2SupXSize: 861
OS2SupYSize: 799
OS2SupXOff: 0
OS2SupYOff: 615
OS2StrikeYSize: 61
OS2StrikeYPos: 307
OS2CapHeight: 0
OS2XHeight: 0
OS2Vendor: 'ACE '
OS2CodePages: 00000001.00000000
OS2UnicodeRanges: 80108003.00002042.00000000.00000000
Lookup: 260 0 0 "MarktobaseattachmentinTamillook" { "MarktobaseattachmentinTamillook subtable"  } ['abvm' ('taml' <'dflt' > 'DFLT' <'dflt' > ) ]
DEI: 91125
LangName: 1033 "Licensed under the SIL Open Font License 1.1 (see file OFL.txt)" "" "" "" "" "Version 2.5.0" "" "" "" "" "" "" "" "" "" "" "ayanna-tamil" "tamil"
Encoding: tamil
UnicodeInterp: none
NameList: AGL For New Fonts
DisplaySize: -128
AntiAlias: 1
FitToEm: 1
WinInfo: 0 8 7
BeginPrivate: 3
StemSnapH 13 [35 36 37 66]
StemSnapV 21 [8 10 35 36 37 38 66]
BlueShift 1 0
EndPrivate
Grid
-1024 559.984985352 m 0
 2048 559.984985352 l 1024
-1024 544.984985352 m 0
 2048 544.984985352 l 1024
EndSplineSet
AnchorClass2: "tml_virama" "MarktobaseattachmentinTamillook subtable" 
BeginChars: 263 132

StartChar: tml_E
Encoding: 9 2958 0
GlifName: tml_E_
Width: 660
VWidth: 0
GlyphClass: 2
Flags: HW
AnchorPoint: "tml_virama" 428 1 basechar 0
LayerCount: 2
Back
Fore
SplineSet
54 239 m 256
 54 431 144 544 297 545 c 256
 297 450 l 256
 200 450 153 361 153 249 c 256
 153 155 170 72 217 72 c 256
 262 72 270 135 270 173 c 256
 270 232 243 264 217 264 c 256
 179 264 151 215 162 143 c 257
 78 211 l 257
 100 260 129 362 222 362 c 256
 290 362 369 307 369 170 c 256
 369 52 312 -24 217 -24 c 256
 115 -24 54 87 54 239 c 256
289 450 m 257
 291 545 l 257
 635 545 l 257
 635 450 l 257
 535 450 l 257
 535 0 l 257
 430 0 l 257
 430 450 l 257
 289 450 l 257
EndSplineSet
EndChar

StartChar: tml_Ee
Encoding: 10 2959 1
GlifName: tml_E_e
Width: 646
VWidth: 0
GlyphClass: 2
Flags: HW
HStem: -18 36 0 21<416 521 416 416 521 521> 232 36 485 35
VStem: -41 37 208 37 457 36
AnchorPoint: "tml_virama" 314 1 basechar 0
LayerCount: 2
Back
Fore
SplineSet
40 239 m 256
 40 431 130 544 283 545 c 256
 283 450 l 256
 186 450 139 361 139 249 c 256
 139 155 156 72 203 72 c 256
 248 72 256 135 256 173 c 256
 256 232 229 264 203 264 c 256
 165 264 137 215 148 143 c 257
 64 211 l 257
 86 260 115 362 208 362 c 256
 276 362 355 307 355 170 c 256
 355 52 298 -24 203 -24 c 256
 101 -24 40 87 40 239 c 256
194 -161 m 257
 416 48 l 257
 521 0 l 257
 266 -236 l 257
 194 -161 l 257
275 450 m 257
 277 545 l 257
 621 545 l 257
 621 450 l 257
 521 450 l 257
 521 0 l 257
 416 0 l 257
 416 450 l 257
 275 450 l 257
EndSplineSet
PickledDataWithLists: "(dp1
S'com.fontlab.hintData'
p2
(dp3
S'vhints'
p4
(lp5
(dp6
S'position'
p7
I-41
sS'width'
p8
I37
sa(dp9
g7
I208
sg8
I37
sa(dp10
g7
I457
sg8
I36
sasS'hhints'
p11
(lp12
(dp13
g7
I-18
sg8
I36
sa(dp14
g7
I0
sg8
I21
sa(dp15
g7
I232
sg8
I36
sa(dp16
g7
I485
sg8
I35
sass."
EndChar

StartChar: tml_Ii
Encoding: 6 2952 2
GlifName: tml_I_i
Width: 612
VWidth: 0
GlyphClass: 2
Flags: HW
HStem: 0 21<60 60 60 165 314 314 314 419> 485 35
VStem: 108 36 413 36
LayerCount: 2
Back
Fore
SplineSet
60 0 m 257
 60 551 l 257
 587 551 l 257
 587 456 l 257
 165 456 l 257
 165 0 l 257
 60 0 l 257
182 278 m 256
 182 248 208 221 239 221 c 256
 269 221 295 248 295 278 c 256
 295 308 269 335 239 335 c 256
 208 335 182 308 182 278 c 256
314 0 m 257
 314 486 l 257
 419 486 l 257
 419 0 l 257
 314 0 l 257
434 278 m 256
 434 248 460 221 490 221 c 256
 521 221 547 248 547 278 c 256
 547 308 521 335 490 335 c 256
 460 335 434 308 434 278 c 256
EndSplineSet
PickledDataWithLists: "(dp1
S'com.fontlab.hintData'
p2
(dp3
S'vhints'
p4
(lp5
(dp6
S'position'
p7
I108
sS'width'
p8
I36
sa(dp9
g7
I413
sg8
I36
sasS'hhints'
p10
(lp11
(dp12
g7
I0
sg8
I21
sa(dp13
g7
I485
sg8
I35
sass."
EndChar

StartChar: tml_Lla
Encoding: 31 2995 3
GlifName: tml_L_la
Width: 878
VWidth: 0
GlyphClass: 2
Flags: HW
HStem: -17 36 0 21<424 424 424 529 648 648 648 753> 233 36 485 35 499 36
VStem: 23 37 272 37 424 35 698 36
LayerCount: 2
Back
Fore
SplineSet
54 239 m 256
 54 441 137 560 278 561 c 256
 413 562 508 418 508 212 c 256
 424 242 l 256
 422 377 366 467 278 467 c 256
 194 467 153 370 153 249 c 256
 153 155 170 72 217 72 c 256
 262 72 270 135 270 173 c 256
 270 232 244 264 218 264 c 256
 179 264 151 215 162 143 c 257
 78 211 l 257
 100 260 129 362 223 362 c 256
 291 362 369 307 369 170 c 256
 369 52 312 -24 217 -24 c 256
 115 -24 54 87 54 239 c 256
424 0 m 257
 424 545 l 257
 853 545 l 257
 853 450 l 257
 753 450 l 257
 753 0 l 257
 648 0 l 257
 648 450 l 257
 529 450 l 257
 529 0 l 257
 424 0 l 257
EndSplineSet
PickledDataWithLists: "(dp1
S'com.fontlab.hintData'
p2
(dp3
S'vhints'
p4
(lp5
(dp6
S'position'
p7
I23
sS'width'
p8
I37
sa(dp9
g7
I272
sg8
I37
sa(dp10
g7
I424
sg8
I35
sa(dp11
g7
I698
sg8
I36
sasS'hhints'
p12
(lp13
(dp14
g7
I-17
sg8
I36
sa(dp15
g7
I0
sg8
I21
sa(dp16
g7
I233
sg8
I36
sa(dp17
g7
I485
sg8
I35
sa(dp18
g7
I499
sg8
I36
sass."
EndChar

StartChar: tml_Day
Encoding: 65 3059 4
GlifName: tml_D_ay
Width: 622
VWidth: 0
GlyphClass: 2
Flags: HW
AnchorPoint: "tml_virama" 413 1 basechar 0
LayerCount: 2
Back
Fore
SplineSet
40 239 m 256
 40 441 130 560 283 561 c 256
 417 562 512 437 512 258 c 256
 512 116 468 57 468 57 c 257
 380 79 l 257
 396 118 410 167 410 256 c 256
 410 383 360 467 283 467 c 256
 186 467 139 370 139 249 c 256
 139 155 156 72 203 72 c 256
 248 72 256 135 256 173 c 256
 256 232 229 264 203 264 c 256
 165 264 137 215 148 143 c 257
 64 211 l 257
 86 260 115 362 208 362 c 256
 276 362 355 307 355 170 c 256
 355 52 298 -24 203 -24 c 256
 101 -24 40 87 40 239 c 256
380 79 m 257
 485 95 l 257
 597 95 l 257
 597 0 l 257
 381 0 l 257
 380 79 l 257
EndSplineSet
EndChar

StartChar: tml_Pa
Encoding: 25 2986 5
GlifName: tml_P_a
Width: 511
VWidth: 0
GlyphClass: 2
Flags: HW
HStem: 0 35
VStem: 50 36 435 36
AnchorPoint: "tml_virama" 266 0 basechar 0
LayerCount: 2
Back
Fore
SplineSet
70 0 m 257
 70 543 l 257
 175 543 l 257
 175 100 l 257
 346 100 l 257
 346 543 l 257
 451 543 l 257
 451 0 l 257
 70 0 l 257
EndSplineSet
PickledDataWithLists: "(dp1
S'com.fontlab.hintData'
p2
(dp3
S'vhints'
p4
(lp5
(dp6
S'position'
p7
I50
sS'width'
p8
I36
sa(dp9
g7
I435
sg8
I36
sasS'hhints'
p10
(lp11
(dp12
g7
I0
sg8
I35
sass."
EndChar

StartChar: tml_Ra
Encoding: 28 2992 6
GlifName: tml_R_a
Width: 498
VWidth: 0
GlyphClass: 2
Flags: HW
HStem: 0 21<58 58 58 163 282 282 282 387 388 388> 485 35
VStem: 7 36 313 36
AnchorPoint: "tml_virama" 220 0 basechar 0
LayerCount: 2
Back
Fore
SplineSet
58 0 m 257
 58 551 l 257
 487 551 l 257
 487 456 l 257
 387 456 l 257
 387 0 l 257
 282 0 l 257
 282 456 l 257
 163 456 l 257
 163 0 l 257
 58 0 l 257
69 -170 m 257
 284 32 l 257
 388 0 l 257
 133 -236 l 257
 69 -170 l 257
EndSplineSet
PickledDataWithLists: "(dp1
S'com.fontlab.hintData'
p2
(dp3
S'vhints'
p4
(lp5
(dp6
S'position'
p7
I7
sS'width'
p8
I36
sa(dp9
g7
I313
sg8
I36
sasS'hhints'
p10
(lp11
(dp12
g7
I0
sg8
I21
sa(dp13
g7
I485
sg8
I35
sass."
EndChar

StartChar: tml_Tta
Encoding: 20 2975 7
GlifName: tml_T_ta
Width: 663
VWidth: 0
GlyphClass: 2
Flags: HW
HStem: 0 35
VStem: 60 36
AnchorPoint: "tml_virama" 346 0 basechar 0
LayerCount: 2
Back
Fore
SplineSet
60 0 m 257
 60 544 l 257
 165 544 l 257
 165 103 l 257
 633 103 l 257
 633 0 l 257
 60 0 l 257
EndSplineSet
PickledDataWithLists: "(dp1
S'com.fontlab.hintData'
p2
(dp3
S'vhints'
p4
(lp5
(dp6
S'position'
p7
I60
sS'width'
p8
I36
sasS'hhints'
p9
(lp10
(dp11
g7
I0
sg8
I35
sass."
EndChar

StartChar: tml_Va
Encoding: 33 2997 8
GlifName: tml_V_a
Width: 768
VWidth: 0
GlyphClass: 2
Flags: HW
AnchorPoint: "tml_virama" 427 1 basechar 0
LayerCount: 2
Back
Fore
SplineSet
54 239 m 256
 54 441 144 560 297 561 c 256
 431 562 526 437 526 258 c 256
 526 116 482 57 482 57 c 257
 394 79 l 257
 410 118 424 167 424 256 c 256
 424 383 374 467 297 467 c 256
 200 467 153 370 153 249 c 256
 153 155 170 72 217 72 c 256
 262 72 270 135 270 173 c 256
 270 232 243 264 217 264 c 256
 179 264 151 215 162 143 c 257
 78 211 l 257
 100 260 129 362 222 362 c 256
 290 362 369 307 369 170 c 256
 369 52 312 -24 217 -24 c 256
 115 -24 54 87 54 239 c 256
394 79 m 257
 499 95 l 257
 603 95 l 257
 603 545 l 257
 708 545 l 257
 708 0 l 257
 395 0 l 257
 394 79 l 257
EndSplineSet
EndChar

StartChar: tml_MatraAa
Encoding: 38 3006 9
GlifName: tml_M_atraA_a
Width: 486
VWidth: 0
GlyphClass: 2
Flags: HW
HStem: 0 21<50 50 50 155 274 274 274 379> 485 35
VStem: 108 36 413 36
LayerCount: 2
Back
Fore
SplineSet
50 0 m 257
 50 545 l 257
 479 545 l 257
 479 450 l 257
 379 450 l 257
 379 0 l 257
 274 0 l 257
 274 450 l 257
 155 450 l 257
 155 0 l 257
 50 0 l 257
EndSplineSet
PickledDataWithLists: "(dp1
S'com.fontlab.hintData'
p2
(dp3
S'vhints'
p4
(lp5
(dp6
S'position'
p7
I108
sS'width'
p8
I36
sa(dp9
g7
I413
sg8
I36
sasS'hhints'
p10
(lp11
(dp12
g7
I0
sg8
I21
sa(dp13
g7
I485
sg8
I35
sass."
EndChar

StartChar: tml_Seven
Encoding: 59 3053 10
GlifName: tml_S_even
Width: 606
VWidth: 0
GlyphClass: 2
Flags: HW
HStem: 0 21<431 536 431 431> 485 35
VStem: 94 36 399 36
LayerCount: 2
Back
Fore
SplineSet
40 239 m 256
 40 431 148 544 332 545 c 256
 332 450 l 256
 194 450 139 361 139 249 c 256
 139 155 156 72 203 72 c 256
 248 72 256 135 256 173 c 256
 256 232 230 264 204 264 c 256
 165 264 137 215 148 143 c 257
 64 211 l 257
 86 260 115 362 209 362 c 256
 277 362 355 307 355 170 c 256
 355 52 298 -24 203 -24 c 256
 101 -24 40 87 40 239 c 256
318 450 m 257
 328 545 l 257
 536 545 l 257
 536 450 l 257
 536 450 l 257
 536 0 l 257
 431 0 l 257
 431 450 l 257
 318 450 l 257
EndSplineSet
PickledDataWithLists: "(dp1
S'com.fontlab.hintData'
p2
(dp3
S'vhints'
p4
(lp5
(dp6
S'position'
p7
I94
sS'width'
p8
I36
sa(dp9
g7
I399
sg8
I36
sasS'hhints'
p10
(lp11
(dp12
g7
I0
sg8
I21
sa(dp13
g7
I485
sg8
I35
sass."
EndChar

StartChar: uni0031
Encoding: 256 49 11
GlifName: uni0031
Width: 279
VWidth: 0
GlyphClass: 2
Flags: HW
HStem: 0 21<124 229 124 124>
VStem: 124 105<0 464 464 464>
LayerCount: 2
Back
Fore
SplineSet
19 435 m 257
 20 555 l 257
 229 609 l 257
 229 609 l 257
 229 0 l 257
 124 0 l 257
 124 464 l 257
 19 435 l 257
EndSplineSet
PickledDataWithLists: "(dp1
S'com.fontlab.hintData'
p2
(dp3
S'vhints'
p4
(lp5
(dp6
S'position'
p7
I124
sS'width'
p8
I105
sasS'hhints'
p9
(lp10
(dp11
g7
I0
sg8
I21
sass."
EndChar

StartChar: uni0032
Encoding: 257 50 12
GlifName: uni0032
Width: 459
VWidth: 0
GlyphClass: 2
Flags: HW
HStem: -17 36 0 35 233 36 499 36
VStem: 49 37 298 37 480 38
LayerCount: 2
Back
Fore
SplineSet
21 466 m 257
 43 543 116 614 210 614 c 256
 344 614 441 515 420 336 c 256
 402 219 312 140 242 103 c 257
 439 103 l 257
 439 0 l 257
 31 0 l 257
 31 93 l 257
 201 187 305 265 314 359 c 256
 322 455 271 506 217 507 c 256
 145 508 121 452 112 426 c 257
 21 466 l 257
EndSplineSet
PickledDataWithLists: "(dp1
S'com.fontlab.hintData'
p2
(dp3
S'vhints'
p4
(lp5
(dp6
S'position'
p7
I49
sS'width'
p8
I37
sa(dp9
g7
I298
sg8
I37
sa(dp10
g7
I480
sg8
I38
sasS'hhints'
p11
(lp12
(dp13
g7
I-17
sg8
I36
sa(dp14
g7
I0
sg8
I35
sa(dp15
g7
I233
sg8
I36
sa(dp16
g7
I499
sg8
I36
sass."
EndChar

StartChar: NameMe.13
Encoding: 258 -1 13
GlifName: N_ameM_e.13
Width: 533
VWidth: 0
GlyphClass: 2
Flags: HW
LayerCount: 2
Back
Fore
SplineSet
25 252 m 256
 25 395 105 471 195 471 c 256
 228 471 252 461 275 445 c 257
 237 345 l 257
 211 360 169 369 147 320 c 256
 139 303 135 280 135 252 c 256
 135 168 190 115 244 115 c 256
 349 115 389 244 389 377 c 256
 389 510 351 640 248 640 c 256
 180 640 148 589 138 551 c 258
 136 545 l 257
 30 584 l 257
 32 588 l 258
 57 664 113 755 248 755 c 256
 483 755 503 488 503 377 c 256
 503 265 479 0 244 0 c 256
 92 0 25 136 25 252 c 256
EndSplineSet
EndChar

StartChar: tml_A
Encoding: 3 2949 14
GlifName: tml_A_
Width: 825
VWidth: 0
GlyphClass: 2
Flags: HW
HStem: -134 36 160 35 298 35 492 37
VStem: 155 37 524 37 670 36 670 8
LayerCount: 2
Back
Fore
SplineSet
57 58 m 256
 56 157 118 219 237 219 c 258
 678 219 l 257
 678 124 l 257
 233 124 l 258
 186 124 163 92 163 55 c 256
 163 -12 227 -49 299 -49 c 256
 440 -49 497 45 498 186 c 256
 499 324 461 469 361 468 c 256
 333 468 314 445 314 416 c 256
 314 383 333 356 362 356 c 256
 386 356 409 374 409 413 c 256
 409 453 382 468 362 468 c 257
 462 474 l 257
 474 447 479 421 479 398 c 256
 479 320 435 265 356 265 c 256
 277 264 218 323 217 410 c 256
 216 503 279 562 363 561 c 256
 540 560 600 364 601 190 c 256
 602 -11 498 -144 299 -144 c 256
 150 -144 58 -53 57 58 c 256
660 -116 m 257
 660 545 l 257
 765 545 l 257
 765 -116 l 257
 660 -116 l 257
EndSplineSet
PickledDataWithLists: "(dp1
S'com.fontlab.hintData'
p2
(dp3
S'vhints'
p4
(lp5
(dp6
S'position'
p7
I155
sS'width'
p8
I37
sa(dp9
g7
I524
sg8
I37
sa(dp10
g7
I670
sg8
I36
sa(dp11
g7
I670
sg8
I8
sasS'hhints'
p12
(lp13
(dp14
g7
I-134
sg8
I36
sa(dp15
g7
I160
sg8
I35
sa(dp16
g7
I298
sg8
I35
sa(dp17
g7
I492
sg8
I37
sass."
EndChar

StartChar: tml_Aa
Encoding: 4 2950 15
GlifName: tml_A_a
Width: 1075
VWidth: 0
GlyphClass: 2
Flags: HW
HStem: -134 36 160 35 298 35 492 37
LayerCount: 2
Back
Fore
SplineSet
508 -144 m 257
 602 -128 l 257
 618 -238 666 -287 767 -288 c 256
 888 -289 925 -183 925 -82 c 256
 925 -3 907 66 848 66 c 256
 790 66 766 33 765 -24 c 257
 690 -58 l 257
 688 70 754 161 848 161 c 256
 976 161 1030 41 1030 -82 c 256
 1030 -257 931 -383 767 -383 c 256
 669 -383 529 -344 508 -144 c 257
EndSplineSet
Refer: 14 2949 N 1 0 0 1 0 0 2
PickledDataWithLists: "(dp1
S'com.fontlab.hintData'
p2
(dp3
S'hhints'
p4
(lp5
(dp6
S'position'
p7
I-134
sS'width'
p8
I36
sa(dp9
g7
I160
sg8
I35
sa(dp10
g7
I298
sg8
I35
sa(dp11
g7
I492
sg8
I37
sass."
EndChar

StartChar: tml_Nnna
Encoding: 24 2985 16
GlifName: tml_N_nna
Width: 940
VWidth: 0
GlyphClass: 2
Flags: HW
LayerCount: 2
Back
Fore
SplineSet
40 239 m 256
 40 438 152 555 342 556 c 256
 342 461 l 256
 197 461 139 368 139 249 c 256
 139 155 156 72 203 72 c 256
 248 72 256 135 256 173 c 256
 256 232 230 264 204 264 c 256
 165 264 137 215 148 143 c 257
 64 211 l 257
 86 260 115 362 209 362 c 256
 277 362 355 307 355 170 c 256
 355 52 298 -24 203 -24 c 256
 101 -24 40 87 40 239 c 256
342 461 m 257
 342 556 l 257
 364 556 l 257
 364 461 l 257
 342 461 l 257
361 461 m 256
 361 556 l 256
 513 556 673 458 673 208 c 256
 673 51 630 -24 528 -24 c 256
 429 -24 380 53 380 208 c 256
 380 414 460 545 647 546 c 257
 925 546 l 257
 925 451 l 257
 825 451 l 257
 825 0 l 257
 720 0 l 257
 720 451 l 257
 648 451 l 257
 530 451 485 359 485 208 c 256
 485 137 499 72 528 72 c 256
 556 72 567 130 567 207 c 256
 567 403 452 461 361 461 c 256
EndSplineSet
EndChar

StartChar: tml_Nna
Encoding: 21 2979 17
GlifName: tml_N_na
Width: 1274
VWidth: 0
GlyphClass: 2
Flags: HW
HStem: -17 36 1 21 233 36 486 35
VStem: -51 37 198 37 447 36
AnchorPoint: "tml_virama" 476 0 basechar 0
LayerCount: 2
Back
Fore
SplineSet
40 239 m 256
 40 438 152 555 343 556 c 256
 343 461 l 256
 206 461 139 368 139 249 c 256
 139 155 156 72 203 72 c 256
 248 72 256 135 256 173 c 256
 256 232 230 264 204 264 c 256
 165 264 137 215 148 143 c 257
 64 211 l 257
 86 260 115 362 209 362 c 256
 277 362 355 307 355 170 c 256
 355 52 298 -24 203 -24 c 256
 101 -24 40 87 40 239 c 256
343 461 m 257
 343 556 l 257
 365 556 l 257
 365 461 l 257
 343 461 l 257
362 461 m 256
 362 556 l 256
 514 556 673 458 673 208 c 256
 673 51 630 -24 528 -24 c 256
 430 -24 382 53 382 208 c 256
 382 420 476 555 696 556 c 257
 692 461 l 257
 544 461 487 365 487 208 c 256
 487 137 500 72 528 72 c 256
 556 72 567 130 567 207 c 256
 567 403 453 461 362 461 c 256
689 461 m 256
 689 556 l 256
 842 556 1002 458 1002 208 c 256
 1002 51 959 -24 858 -24 c 256
 761 -24 713 53 713 208 c 256
 713 414 792 545 977 546 c 257
 1256 546 l 257
 1256 451 l 257
 1156 451 l 257
 1156 0 l 257
 1051 0 l 257
 1051 451 l 257
 978 451 l 257
 862 451 818 359 818 208 c 256
 818 137 831 72 858 72 c 256
 885 72 896 130 896 207 c 256
 896 403 781 461 689 461 c 256
EndSplineSet
PickledDataWithLists: "(dp1
S'com.fontlab.hintData'
p2
(dp3
S'vhints'
p4
(lp5
(dp6
S'position'
p7
I-51
sS'width'
p8
I37
sa(dp9
g7
I198
sg8
I37
sa(dp10
g7
I447
sg8
I36
sasS'hhints'
p11
(lp12
(dp13
g7
I-17
sg8
I36
sa(dp14
g7
I1
sg8
I21
sa(dp15
g7
I233
sg8
I36
sa(dp16
g7
I486
sg8
I35
sass."
EndChar

StartChar: tml_Ma
Encoding: 26 2990 19
GlifName: tml_M_a
Width: 624
VWidth: 0
GlyphClass: 2
Flags: HW
HStem: 0 35 520 35
VStem: 70 35 327 35 638 36
AnchorPoint: "tml_virama" 286 0 basechar 0
LayerCount: 2
Back
Fore
SplineSet
60 0 m 257
 60 545 l 257
 165 545 l 257
 165 95 l 257
 378 95 l 257
 393 0 l 257
 60 0 l 257
250 66 m 256
 250 382 l 258
 250 496 284 560 399 561 c 256
 519 562 572 404 573 271 c 256
 574 85 514 0 389 0 c 257
 371 95 l 257
 461 94 468 171 468 271 c 256
 468 355 448 465 400 465 c 256
 360 465 355 433 355 382 c 258
 355 66 l 257
 250 66 l 256
EndSplineSet
PickledDataWithLists: "(dp1
S'com.fontlab.hintData'
p2
(dp3
S'vhints'
p4
(lp5
(dp6
S'position'
p7
I70
sS'width'
p8
I35
sa(dp9
g7
I327
sg8
I35
sa(dp10
g7
I638
sg8
I36
sasS'hhints'
p11
(lp12
(dp13
g7
I0
sg8
I35
sa(dp14
g7
I520
sg8
I35
sass."
EndChar

StartChar: tml_Virama
Encoding: 49 3021 20
GlifName: tml_V_irama
Width: 0
VWidth: 0
GlyphClass: 4
Flags: HW
HStem: 658 48
VStem: -24 48
AnchorPoint: "tml_virama" 0 0 mark 0
LayerCount: 2
Back
Fore
SplineSet
-61 682 m 256
 -61 715 -33 743 0 743 c 256
 33 743 61 715 61 682 c 256
 61 649 33 621 0 621 c 256
 -33 621 -61 649 -61 682 c 256
EndSplineSet
PickledDataWithLists: "(dp1
S'com.fontlab.hintData'
p2
(dp3
S'vhints'
p4
(lp5
(dp6
S'position'
p7
I-24
sS'width'
p8
I48
sasS'hhints'
p9
(lp10
(dp11
g7
I658
sg8
I48
sass."
EndChar

StartChar: tml_I
Encoding: 5 2951 21
GlifName: tml_I_
Width: 1005
VWidth: 0
GlyphClass: 2
Flags: HW
HStem: -134 36 160 35 298 35 492 37
VStem: 181 37 550 37 696 36 696 8
LayerCount: 2
Back
Fore
SplineSet
43 58 m 256
 42 273 283 300 441 300 c 256
 597 300 808 253 808 61 c 256
 808 -25 772 -144 570 -144 c 256
 301 -144 155 153 155 419 c 256
 155 646 288 787 522 786 c 256
 812 784 945 573 945 234 c 256
 945 159 945 -41 945 -98 c 257
 832 -97 l 257
 833 -48 834 165 834 254 c 256
 833 515 717 678 522 677 c 256
 357 677 263 595 263 398 c 256
 263 155 451 -39 568 -39 c 256
 680 -39 694 23 694 60 c 256
 694 117 646 189 436 189 c 256
 245 189 149 154 149 52 c 256
 149 -3 186 -39 265 -39 c 256
 394 -39 576 117 604 307 c 256
 624 433 596 529 487 528 c 256
 459 528 440 505 440 476 c 256
 440 443 459 416 488 416 c 256
 512 416 535 434 535 473 c 256
 535 513 508 528 488 528 c 257
 588 534 l 257
 600 507 605 481 605 458 c 256
 605 380 561 326 482 325 c 256
 403 324 344 383 343 470 c 256
 342 563 409 622 499 621 c 256
 662 620 724 456 702 291 c 256
 665 24 452 -144 275 -144 c 256
 109 -144 44 -58 43 58 c 256
EndSplineSet
PickledDataWithLists: "(dp1
S'com.fontlab.hintData'
p2
(dp3
S'vhints'
p4
(lp5
(dp6
S'position'
p7
I181
sS'width'
p8
I37
sa(dp9
g7
I550
sg8
I37
sa(dp10
g7
I696
sg8
I36
sa(dp11
g7
I696
sg8
I8
sasS'hhints'
p12
(lp13
(dp14
g7
I-134
sg8
I36
sa(dp15
g7
I160
sg8
I35
sa(dp16
g7
I298
sg8
I35
sa(dp17
g7
I492
sg8
I37
sass."
EndChar

StartChar: tml_Sha
Encoding: 34 2998 27
GlifName: tml_S_ha
Width: 811
GlyphClass: 2
Flags: HW
AnchorPoint: "tml_virama" 383 0 basechar 0
LayerCount: 2
Back
Fore
SplineSet
56 545 m 1
 161 545 l 1
 161 148 l 2
 161 94 183 80 214 80 c 0
 240 80 271 94 271 148 c 2
 271 545 l 1
 376 545 l 1
 376 148 l 2
 376 38 318 -17 212 -17 c 0
 101 -17 56 44 56 148 c 2
 56 545 l 1
271 450 m 1
 271 545 l 1
 546 545 l 1
 564 450 l 1
 271 450 l 1
441 148 m 256
 441 530 l 256
 551 530 l 257
 551 148 l 256
 551 94 581 83 601 83 c 256
 639 83 646 131 646 275 c 256
 646 385 641 451 531 450 c 257
 541 545 l 257
 666 545 755.73 516 755 275 c 256
 754.45 92 719 -15 598 -15 c 256
 523.99 -15 441 15 441 148 c 256
EndSplineSet
EndChar

StartChar: tml_Ya
Encoding: 27 2991 30
GlifName: tml_Y_a
Width: 685
VWidth: 0
GlyphClass: 2
Flags: HW
HStem: -17 36 0 21<306 306 306 635> 233 36 485 35 499 36
VStem: -215 37 34 37 186 35 460 36
AnchorPoint: "tml_virama" 348 0 basechar 0
LayerCount: 2
Back
Fore
SplineSet
61 156 m 258
 61 545 l 256
 166 545 l 257
 166 161 l 258
 166 102 185 80 226 80 c 256
 289 80 306 127 306 255 c 256
 351 291 l 257
 378 104 320 -17 209 -17 c 256
 94 -17 61 52 61 156 c 258
306 0 m 257
 306 545 l 257
 411 545 l 257
 411 95 l 257
 530 95 l 257
 530 545 l 257
 635 545 l 257
 635 0 l 257
 306 0 l 257
EndSplineSet
PickledDataWithLists: "(dp1
S'com.fontlab.hintData'
p2
(dp3
S'vhints'
p4
(lp5
(dp6
S'position'
p7
I-215
sS'width'
p8
I37
sa(dp9
g7
I34
sg8
I37
sa(dp10
g7
I186
sg8
I35
sa(dp11
g7
I460
sg8
I36
sasS'hhints'
p12
(lp13
(dp14
g7
I-17
sg8
I36
sa(dp15
g7
I0
sg8
I21
sa(dp16
g7
I233
sg8
I36
sa(dp17
g7
I485
sg8
I35
sa(dp18
g7
I499
sg8
I36
sass."
EndChar

StartChar: tml_Nya
Encoding: 19 2974 32
GlifName: tml_N_ya
Width: 1156
VWidth: 0
GlyphClass: 2
Flags: HW
HStem: 0 21<665 770 665 665> 485 35
VStem: 152 36 457 36
LayerCount: 2
Back
Fore
SplineSet
94 227 m 256
 94 362 144 467 200 558 c 257
 289 514 l 257
 236 423 200 351 200 221 c 256
 200 -37 356 -174 572 -173 c 256
 778 -172 904 -68 904 111 c 256
 904 189 883 266 829 266 c 256
 782 266 769 225 770 148 c 256
 770 131 770 112 770 93 c 257
 671 91 l 257
 661 175 679 249 708 292 c 256
 742 343 783 368 835 367 c 256
 950 365 1006 244 1006 116 c 256
 1007 -126 836 -271 571 -270 c 256
 288 -269 95 -90 94 227 c 256
286 239 m 256
 286 431 394 544 578 545 c 256
 578 450 l 256
 440 450 385 361 385 249 c 256
 385 155 402 72 449 72 c 256
 494 72 502 135 502 173 c 256
 502 232 476 264 450 264 c 256
 411 264 383 215 394 143 c 257
 310 211 l 257
 332 260 361 362 455 362 c 256
 523 362 601 307 601 170 c 256
 601 52 544 -24 449 -24 c 256
 347 -24 286 87 286 239 c 256
560 450 m 257
 562 545 l 257
 870 545 l 257
 870 450 l 257
 770 450 l 257
 770 0 l 257
 665 0 l 257
 665 450 l 257
 560 450 l 257
EndSplineSet
PickledDataWithLists: "(dp1
S'com.fontlab.hintData'
p2
(dp3
S'vhints'
p4
(lp5
(dp6
S'position'
p7
I152
sS'width'
p8
I36
sa(dp9
g7
I457
sg8
I36
sasS'hhints'
p10
(lp11
(dp12
g7
I0
sg8
I21
sa(dp13
g7
I485
sg8
I35
sass."
EndChar

StartChar: tml_U
Encoding: 7 2953 34
GlifName: tml_U_
Width: 835
GlyphClass: 2
Flags: HW
LayerCount: 2
Back
Fore
SplineSet
803 95 m 1
 803 0 l 1
 80 0 l 1
 79 95 l 1
 215.25 95 l 1
 336.95 105.38 419.07 195.38 420 343 c 0
 421 448 386 531 277 531 c 0
 235.63 531 200.78 513.82 177.61 484.77 c 1
 184.29 486.22 191.4 487 199 487 c 0
 263 487 337 438 337 316 c 0
 337 212 283 146 193 146 c 0
 102 146 48 245 48 380 c 0
 48 522 154 625 277 625 c 0
 429 625 521 517 521 345 c 0
 521 218.09 475.28 140.54 430.45 95 c 1
 803 95 l 1
153 305.99 m 1
 159.62 267.83 172.19 242 193 242 c 0
 231 242 238 290 238 319 c 0
 238 364 216 389 194 389 c 0
 165.38 389 153.31 355.88 153 305.99 c 1
EndSplineSet
EndChar

StartChar: tml_Ka
Encoding: 15 2965 37
GlifName: tml_K_a
Width: 626
GlyphClass: 2
Flags: HW
LayerCount: 2
Back
Fore
SplineSet
30 170 m 0
 29 261 82 332 168 332 c 2
 440 332 l 0
 518.516556291 332 596 297.96875 596 167 c 0
 596 75.7167630058 569.121621622 0.942196531792 443 -1 c 1
 401 1 l 1
 401 95 l 1
 435 95 l 2
 474 95 491 120.463414634 491 167 c 0
 491 217.671875 467 236 427 236 c 0
 186 238 l 0
 146 238 127 208 127 170 c 0
 127 121 157 95 207 95 c 0
 271 95 301 138 301 201 c 6
 301 452 l 1
 241 452 l 1
 241 301 l 1
 136 301 l 1
 136 545 l 1
 506 545 l 1
 506 452 l 1
 406 452 l 1
 406 201 l 6
 406 97 366 0 207 0 c 0
 80 0 31 73 30 170 c 0
EndSplineSet
EndChar

StartChar: tml_Nga
Encoding: 16 2969 38
GlifName: tml_N_ga
Width: 782
VWidth: 0
GlyphClass: 2
Flags: HW
HStem: 0 21<39 39 39 144 263 263 263 368> 485 35
VStem: -12 36 294 36
AnchorPoint: "tml_virama" 381 0 basechar 0
LayerCount: 2
Back
Fore
SplineSet
59 0 m 257
 59 551 l 257
 459 551 l 257
 459 456 l 257
 359 456 l 257
 359 160 l 257
 254 160 l 257
 254 456 l 257
 164 456 l 257
 164 0 l 257
 59 0 l 257
253 95 m 1
 690 95 l 1
 690 0 l 1
 253 0 l 1
 253 95 l 1
280 94 m 257
 340 94 l 256
 464 95 462 213 462 248 c 256
 462 286 440 308 415 308 c 256
 398 308 357 307 358 214 c 256
 358 197 358 188 358 169 c 257
 269 171 l 257
 259 215 269 293 298 336 c 256
 332 387 363 407 415 407 c 256
 500 407 563 345 564 238 c 256
 565 140 531 10 299 9 c 256
 281 9 l 257
 280 94 l 257
608 553 m 1
 713 553 l 1
 713 0 l 1
 608 0 l 1
 608 553 l 1
EndSplineSet
EndChar

StartChar: tml_Ca
Encoding: 17 2970 39
GlifName: tml_C_a
Width: 569
GlyphClass: 2
Flags: HW
LayerCount: 2
Back
Fore
SplineSet
56 170 m 4
 55 260 96 316 162 330 c 5
 162 545 l 5
 534 545 l 5
 534 452 l 5
 434 452 l 5
 434 332 l 5
 534 332 l 5
 534 238 l 5
 434 238 l 5
 434 214 l 6
 435 108 406 0 236 0 c 4
 107 0 57 73 56 170 c 4
329 238 m 5
 212 238 l 6
 172 238 153 210 153 174 c 4
 153 123 184 95 236 95 c 4
 306 95 329 143 329 210 c 6
 329 238 l 5
329 333 m 5
 329 452 l 5
 267 452 l 5
 267 333 l 5
 329 333 l 5
EndSplineSet
EndChar

StartChar: tml_Ta
Encoding: 22 2980 41
GlifName: tml_T_a
Width: 632
GlyphClass: 2
Flags: HW
AnchorPoint: "tml_virama" 300 0 basechar 0
LayerCount: 2
Back
Fore
SplineSet
30 170 m 0
 29 261 82 332 168 332 c 2
 420 332 l 0
 501.536423841 332 582 287.65625 582 117 c 0
 483 117 l 0
 483 204.390625 454.5 236 407 236 c 0
 186 238 l 0
 146 238 127 208 127 170 c 0
 127 121 157 95 207 95 c 0
 271 95 301 138 301 201 c 2
 301 452 l 1
 241 452 l 1
 241 301 l 1
 136 301 l 1
 136 545 l 1
 506 545 l 1
 506 452 l 1
 406 452 l 1
 406 201 l 2
 406 97 366 0 207 0 c 0
 80 0 31.065926351 73.0007020592 30 170 c 0
420 332 m 5
 500.427631579 331 581.927631579 287 583 115 c 4
 583 115 l 5
 583 114 583 114 583 113 c 4
 583 112 583 112 583 111 c 6
 583 111 l 5
 580.918518519 -55 510.306917836 -139.8014276 302 -141 c 4
 187.029914331 -141.784478382 197.682539683 -192.692307692 196 -261 c 5
 84 -261 l 5
 84.9391304348 -165.273504274 105.357490823 -38.4402267975 300 -37 c 4
 453.459243777 -36.0389195156 483 11.995098157 483 114 c 4
 483 204 453.769230769 234 407 236 c 5
 420 332 l 5
EndSplineSet
EndChar

StartChar: tml_Na
Encoding: 23 2984 42
GlifName: tml_N_a
Width: 652
VWidth: 0
GlyphClass: 2
Flags: HWO
HStem: 0 21<58 58 58 163 282 282 282 387> 485 35
VStem: 7 36 313 36
AnchorPoint: "tml_virama" 250 0 basechar 0
LayerCount: 2
Back
SplineSet
460 332 m 5
 540.427631579 331 621.927631579 287 623 115 c 4
 623 115 l 5
 623 114 623 114 623 113 c 4
 623 112 623 112 623 111 c 6
 623 111 l 5
 620.918518519 -55 550.305516962 -139.578663537 342 -141 c 4
 227.029914331 -141.784478382 237.682539683 -192.692307692 236 -261 c 5
 124 -261 l 5
 124.939130435 -165.273504274 145.355979688 -38.2190114112 340 -37 c 4
 493.459243777 -36.0389195156 523 11.995098157 523 114 c 4
 523 204 493.769230769 234 447 236 c 5
 460 332 l 5
EndSplineSet
Fore
SplineSet
58 0 m 257
 58 551 l 257
 487 551 l 257
 487 456 l 257
 387 456 l 257
 387 0 l 257
 282 0 l 257
 282 456 l 257
 163 456 l 257
 163 0 l 257
 58 0 l 257
127 -271 m 257
 127.917012448 -175.428571429 129.736622572 -49.2454026794 348 -48 c 256
 489.305820675 -47.1304347826 506 3.30434782609 506 112 c 256
 506 174.459259259 488.92 236 445 236 c 256
 408.796610169 236 387 209.889458271 387 161 c 256
 387 144 387 125 387 106 c 257
 317 91 l 257
 318.520945047 237.16028379 342.626775606 335.767536926 452 334 c 260
 568.257309942 332.121212121 610 226.909090909 610 117 c 256
 610 -74.6 537.523861133 -141.853905137 366 -143 c 256
 245.007218229 -143.855514482 236 -166.265091864 236 -271 c 257
 127 -271 l 257
EndSplineSet
PickledDataWithLists: "(dp1
S'com.fontlab.hintData'
p2
(dp3
S'vhints'
p4
(lp5
(dp6
S'position'
p7
I7
sS'width'
p8
I36
sa(dp9
g7
I313
sg8
I36
sasS'hhints'
p10
(lp11
(dp12
g7
I0
sg8
I21
sa(dp13
g7
I485
sg8
I35
sass."
EndChar

StartChar: tml_Ssa
Encoding: 35 2999 43
GlifName: tml_S_sa
Width: 1023
VWidth: 0
GlyphClass: 2
Flags: HW
AnchorPoint: "tml_virama" 455 0 basechar 0
LayerCount: 2
Back
Fore
SplineSet
40 239 m 256
 40 437 130 555 283 555 c 256
 417 555 511 434 511 258 c 256
 511 116 466 57 466 57 c 257
 379 79 l 257
 396 118 410 167 410 256 c 256
 410 379 360 461 283 461 c 256
 186 461 139 367 139 249 c 256
 139 155 156 72 203 72 c 256
 248 72 256 135 256 173 c 256
 256 232 230 264 204 264 c 256
 165 264 137 215 148 143 c 257
 64 211 l 257
 86 260 115 362 209 362 c 256
 277 362 355 307 355 170 c 256
 355 52 298 -24 203 -24 c 256
 101 -24 40 87 40 239 c 256
379 0 m 257
 379 79 l 257
 483 96 l 257
 868 96 l 257
 868 461 l 257
 973 461 l 257
 973 0 l 257
 379 0 l 257
524 399 m 256
 521 500 589 555 662 555 c 256
 782 555 802 467 801 404 c 257
 696 384 l 257
 695 435 690 461 664 460 c 256
 644 460 624 438 625 396 c 256
 625 350 647 250 752 250 c 256
 857 250 867 326 868 428 c 256
 943 425 l 256
 943 290 915 150 748 150 c 256
 633 150 528 226 524 399 c 256
696 -152 m 257
 696 388 l 257
 801 408 l 257
 801 -152 l 257
 696 -152 l 257
EndSplineSet
EndChar

StartChar: tml_MatraU
Encoding: 41 3009 48
GlifName: tml_M_atraU_
Width: 384
VWidth: 0
GlyphClass: 2
Flags: HW
LayerCount: 2
Back
SplineSet
177 545 m 6
 260 545 352 522 352 375 c 4
 352 269 298 212 206 212 c 4
 108 212 58 293 58 375 c 4
 58 401.171875 61.6025390625 426.490234375 69.68359375 449 c 5
 -153 449 l 5
 -153 545 l 5
 177 545 l 6
204.518554688 448.997070312 m 4
 173.88671875 448.584960938 163 408.823242188 163 375 c 4
 163 346 174 307 206 307 c 4
 241 307 247 349 247 375 c 4
 247 445.979492188 214.756835938 448.888671875 204.518554688 448.997070312 c 4
EndSplineSet
Fore
SplineSet
187 545 m 258
 -153 545 l 0
 -153 450 l 256
 203 450 l 256
 211 450 247 451 247 376 c 256
 247 345.79 241.29 297 208 297 c 256
 174.51 297 163 342.31 163 376 c 256
 163 410 174 450 205 450 c 257
 202 536 l 257
 94.42 536 56 460.8 56 376 c 256
 56 288.66 104.6 203 200 203 c 256
 296.74 203 354 263.47 354 376 c 256
 354 522.16 266.2 545 187 545 c 258
EndSplineSet
EndChar

StartChar: tml_MatraUu
Encoding: 42 3010 49
GlifName: tml_M_atraU_u
Width: 545
VWidth: 0
GlyphClass: 2
Flags: HW
LayerCount: 2
Back
SplineSet
242.76953125 536.856445312 m 1
 302.842773438 521.453125 352.000976562 479.645507812 352.000976562 374.999023438 c 0
 352.000976562 268.999023438 298.000976562 211.999023438 206.000976562 211.999023438 c 0
 108.000976562 211.999023438 58.0009765625 292.999023438 58.0009765625 374.999023438 c 0
 58.0009765625 399.962890625 60.59375 424.966796875 66.1533203125 448.999023438 c 1
 -152.999023438 448.999023438 l 1
 -152.999023438 544.999023438 l 1
 110.720703125 544.999023438 l 1
 148.987304688 593.4375 210.022460938 625.999023438 300.000976562 625.999023438 c 0
 361.000976562 625.999023438 506.000976562 586.999023438 510.000976562 373.999023438 c 0
 511.000976562 293.999023438 458.000976562 192.999023438 458.000976562 192.999023438 c 1
 391.000976562 222.999023438 l 1
 391.000976562 222.999023438 437.000976562 301.999023438 436.000976562 374.999023438 c 0
 435.000976562 473.999023438 370.000976562 547.999023438 307.000976562 547.999023438 c 0
 281.9140625 547.999023438 260.63671875 544.134765625 242.76953125 536.856445312 c 1
171.38671875 448.999023438 m 1
 165.616210938 427.149414062 163.001953125 402.278320312 163.001953125 374.999023438 c 0
 163.001953125 345.999023438 174.001953125 306.999023438 206.001953125 306.999023438 c 0
 241.001953125 306.999023438 247.001953125 348.999023438 247.001953125 374.999023438 c 0
 247.001953125 449.999023438 203.001953125 448.999023438 193.001953125 448.999023438 c 2
 171.38671875 448.999023438 l 1
EndSplineSet
Fore
SplineSet
157 545 m 258
 -133 545 l 0
 -133 449 l 256
 173 449 l 256
 196.45 449 247 450 247 375 c 256
 247 349 241 307 206 307 c 256
 174 307 163 346 163 375 c 256
 163 465.59 212.05 547 289 547 c 256
 377.94 547 419 456.48 419 387 c 0
 419 301.79 374 223 374 223 c 1
 457 195 l 1
 457 195 510 279.78 510 378 c 0
 510 480.25 459.35 628.01 285 628 c 256
 166.33 627.99 56 545.49 56 375 c 256
 56 292.71 106.62 212 206 212 c 256
 298.97 212 354 268.97 354 375 c 256
 354 522.03 250.42 545 157 545 c 258
EndSplineSet
EndChar

StartChar: tml_MatraE
Encoding: 43 3014 50
GlifName: tml_M_atraE_
Width: 560
VWidth: 0
GlyphClass: 2
Flags: HW
HStem: -17 36 0 21<424 424 424 529 648 648 648 753> 233 36 485 35 499 36
VStem: 23 37 272 37 424 35 698 36
LayerCount: 2
Back
Fore
SplineSet
54 239 m 256
 54 441 157 560 298 561 c 256
 465.65 562.24 516.99 472.94 517.86 291 c 1
 520 0 l 256
 414 0 l 256
 413.31 291 l 1
 409.76 406.01 395.81 467 298 467 c 256
 214 467 153 370 153 249 c 256
 153 155 170 72 217 72 c 256
 262 72 270 135 270 173 c 256
 270 232 244 264 218 264 c 256
 179 264 151 215 162 143 c 257
 78 211 l 257
 100 260 129 362 223 362 c 256
 291 362 369 307 369 170 c 256
 369 52 312 -24 217 -24 c 256
 115 -24 54 87 54 239 c 256
EndSplineSet
EndChar

StartChar: tml_MatraEe
Encoding: 44 3015 51
GlifName: tml_M_atraE_e
Width: 471
VWidth: 0
GlyphClass: 2
Flags: HW
HStem: -134 36 160 35 298 35 492 37
VStem: 166 37 535 37 681 36 681 8
LayerCount: 2
Back
Fore
SplineSet
324 93 m 256
 345 93 353 118 353 137 c 256
 353 160 341 178 325 178 c 256
 311 178 296 162 296 138 c 256
 296 116 306 93 323 93 c 257
 279 35 l 257
 231 72.3 211 108.22 211 140 c 256
 211 219.86 272 269 331 269 c 256
 400.01 269 450 224 451 142 c 256
 452.13 49 387 -0.8 313 0 c 256
 178.7 1.5 41.04 88.23 41 284 c 257
 42 451.92 166.58 558.91 313 560 c 256
 387 560.57 452.13 511 451 418 c 256
 450 336 400.01 291 331 291 c 256
 272 291 211 339 211 417 c 256
 211 446.05 221.88 478.89 248 513 c 257
 323 467 l 257
 306 467 296 444 296 422 c 256
 296 398 311 382 325 382 c 256
 341 382 353 400 353 423 c 256
 353 442 345 467 324 467 c 256
 207.2 467 148.22 381.16 147.74 276 c 0
 147.24 154 205.78 93 324 93 c 256
EndSplineSet
EndChar

StartChar: tml_MatraO
Encoding: 46 3018 53
GlifName: tml_M_atraO_
Width: 878
VWidth: 0
GlyphClass: 2
Flags: HW
HStem: -17 36 0 21<424 424 424 529 648 648 648 753> 233 36 485 35 499 36
VStem: 23 37 272 37 424 35 698 36
LayerCount: 2
Back
Fore
SplineSet
54 239 m 256
 54 441 157 560 298 561 c 256
 465.65 562.24 526.99 462.94 527.86 271 c 1
 530 0 l 256
 424 0 l 256
 423.31 271 l 1
 419.76 406.01 395.81 467 298 467 c 256
 214 467 153 370 153 249 c 256
 153 155 170 72 217 72 c 256
 262 72 270 135 270 173 c 256
 270 232 244 264 218 264 c 256
 179 264 151 215 162 143 c 257
 78 211 l 257
 100 260 129 362 223 362 c 256
 291 362 369 307 369 170 c 256
 369 52 312 -24 217 -24 c 256
 115 -24 54 87 54 239 c 256
EndSplineSet
EndChar

StartChar: tml_MatraAu
Encoding: 48 3020 55
GlifName: tml_M_atraA_u
Width: 878
VWidth: 0
GlyphClass: 2
Flags: HW
HStem: -17 36 0 21<424 424 424 529 648 648 648 753> 233 36 485 35 499 36
VStem: 23 37 272 37 424 35 698 36
LayerCount: 2
Back
Fore
SplineSet
54 239 m 256
 54 441 157 560 298 561 c 256
 465.65 562.24 526.99 462.94 527.86 271 c 1
 530 0 l 256
 424 0 l 256
 423.31 271 l 1
 419.76 406.01 395.81 467 298 467 c 256
 214 467 153 370 153 249 c 256
 153 155 170 72 217 72 c 256
 262 72 270 135 270 173 c 256
 270 232 244 264 218 264 c 256
 179 264 151 215 162 143 c 257
 78 211 l 257
 100 260 129 362 223 362 c 256
 291 362 369 307 369 170 c 256
 369 52 312 -24 217 -24 c 256
 115 -24 54 87 54 239 c 256
EndSplineSet
EndChar

StartChar: dottedcircle
Encoding: 74 9676 113
GlifName: dottedcircle
Width: 761
VWidth: 0
GlyphClass: 2
Flags: HW
HStem: -32 64<375.333 384.667> -15 64<279.667 288.667 473.333 483> 38 65<194.334 203.666 558.333 567.667> 126 64<143.334 153 609.333 618.667> 218 64<127.666 136.666 624.333 634> 311 64<143.334 153 609.333 618.667> 397 65<195.334 204.666 556.667 566> 452 64<279.667 288.667 473.333 483> 470 63<375.333 384.667>
VStem: 100 64<244.334 253.667> 116 63<152.666 161.666 338.333 347.667> 167 63<65.3333 74.6667> 251 64<11.6667 21 479.333 488.667> 348 64<-5.66665 4 496.333 505.333> 447 64<11.6667 21 479.333 488.667> 532 63<65.3333 74.6667> 583 63<152.666 161.666 338.333 347.667> 598 63<244.334 253.667>
LayerCount: 2
Back
Fore
SplineSet
100 249 m 256
 100 258 104 266 110 272 c 256
 116 278 123 282 132 282 c 256
 141 282 149 278 155 272 c 256
 161 266 164 258 164 249 c 256
 164 240 161 232 155 226 c 256
 149 220 141 218 132 218 c 256
 123 218 116 220 110 226 c 256
 104 232 100 240 100 249 c 256
116 157 m 256
 116 166 119 174 125 180 c 256
 131 186 139 190 148 190 c 256
 158 190 166 186 171 180 c 256
 176 174 179 166 179 157 c 256
 179 148 176 141 171 135 c 256
 166 129 158 126 148 126 c 256
 139 126 131 129 125 135 c 256
 119 141 116 148 116 157 c 256
116 343 m 256
 116 352 119 360 125 366 c 256
 131 372 139 375 148 375 c 256
 158 375 166 372 171 366 c 256
 176 360 179 352 179 343 c 256
 179 334 176 326 171 320 c 256
 166 314 158 311 148 311 c 256
 139 311 131 314 125 320 c 256
 119 326 116 334 116 343 c 256
167 70 m 256
 167 79 170 88 176 94 c 256
 182 100 190 103 199 103 c 256
 208 103 216 100 222 94 c 256
 228 88 230 79 230 70 c 256
 230 61 228 53 222 47 c 256
 216 41 208 38 199 38 c 256
 190 38 182 41 176 47 c 256
 170 53 167 61 167 70 c 256
167 429 m 256
 167 438 170 446 176 452 c 256
 182 458 191 462 200 462 c 256
 209 462 216 459 222 453 c 256
 228 447 231 439 231 429 c 256
 231 419 228 412 222 406 c 256
 216 400 209 397 200 397 c 256
 191 397 182 400 176 406 c 256
 170 412 167 420 167 429 c 256
251 16 m 256
 251 26 254 34 261 40 c 256
 268 46 275 49 284 49 c 256
 293 49 300 46 306 40 c 256
 312 34 315 26 315 16 c 256
 315 7 312 0 306 -6 c 256
 300 -12 293 -15 284 -15 c 256
 275 -15 268 -12 261 -6 c 256
 254 0 251 7 251 16 c 256
251 484 m 256
 251 493 254 501 261 507 c 256
 268 513 275 516 284 516 c 256
 293 516 300 513 306 507 c 256
 312 501 315 493 315 484 c 256
 315 475 312 467 306 461 c 256
 300 455 293 452 284 452 c 256
 275 452 268 455 261 461 c 256
 254 467 251 475 251 484 c 256
348 -1 m 256
 348 9 351 17 357 23 c 256
 363 29 371 32 380 32 c 256
 389 32 397 29 403 23 c 256
 409 17 412 9 412 -1 c 256
 412 -10 409 -18 403 -24 c 256
 397 -30 389 -32 380 -32 c 256
 371 -32 363 -30 357 -24 c 256
 351 -18 348 -10 348 -1 c 256
348 501 m 256
 348 510 351 518 357 524 c 256
 363 530 371 533 380 533 c 256
 389 533 397 530 403 524 c 256
 409 518 412 510 412 501 c 256
 412 492 409 484 403 478 c 256
 397 472 389 470 380 470 c 256
 371 470 363 472 357 478 c 256
 351 484 348 492 348 501 c 256
447 16 m 256
 447 26 450 34 456 40 c 256
 462 46 469 49 478 49 c 256
 488 49 496 46 502 40 c 256
 508 34 511 26 511 16 c 256
 511 7 508 0 502 -6 c 256
 496 -12 488 -15 478 -15 c 256
 469 -15 462 -12 456 -6 c 256
 450 0 447 7 447 16 c 256
447 484 m 256
 447 493 450 501 456 507 c 256
 462 513 469 516 478 516 c 256
 488 516 496 513 502 507 c 256
 508 501 511 493 511 484 c 256
 511 475 508 467 502 461 c 256
 496 455 488 452 478 452 c 256
 469 452 462 455 456 461 c 256
 450 467 447 475 447 484 c 256
530 429 m 256
 530 439 533 447 539 453 c 256
 545 459 552 462 561 462 c 256
 571 462 580 458 586 452 c 256
 592 446 595 438 595 429 c 256
 595 420 592 412 586 406 c 256
 580 400 571 397 561 397 c 256
 552 397 545 400 539 406 c 256
 533 412 530 419 530 429 c 256
532 70 m 256
 532 79 534 88 540 94 c 256
 546 100 554 103 563 103 c 256
 572 103 580 100 586 94 c 256
 592 88 595 79 595 70 c 256
 595 61 592 53 586 47 c 256
 580 41 572 38 563 38 c 256
 554 38 546 41 540 47 c 256
 534 53 532 61 532 70 c 256
583 157 m 256
 583 166 586 174 592 180 c 256
 598 186 605 190 614 190 c 256
 623 190 631 186 637 180 c 256
 643 174 646 166 646 157 c 256
 646 148 643 141 637 135 c 256
 631 129 623 126 614 126 c 256
 605 126 598 129 592 135 c 256
 586 141 583 148 583 157 c 256
583 343 m 256
 583 352 586 360 592 366 c 256
 598 372 605 375 614 375 c 256
 623 375 631 372 637 366 c 256
 643 360 646 352 646 343 c 256
 646 334 643 326 637 320 c 256
 631 314 623 311 614 311 c 256
 605 311 598 314 592 320 c 256
 586 326 583 334 583 343 c 256
598 249 m 256
 598 258 600 266 606 272 c 256
 612 278 620 282 629 282 c 256
 639 282 646 278 652 272 c 256
 658 266 661 258 661 249 c 256
 661 240 658 232 652 226 c 256
 646 220 639 218 629 218 c 256
 620 218 612 220 606 226 c 256
 600 232 598 240 598 249 c 256
EndSplineSet
PickledDataWithLists: "(dp1
S'com.fontlab.hintData'
p2
(dp3
S'vhints'
p4
(lp5
(dp6
S'position'
p7
I100
sS'width'
p8
I64
sa(dp9
g7
I116
sg8
I63
sa(dp10
g7
I167
sg8
I63
sa(dp11
g7
I251
sg8
I64
sa(dp12
g7
I348
sg8
I64
sa(dp13
g7
I447
sg8
I64
sa(dp14
g7
I532
sg8
I63
sa(dp15
g7
I583
sg8
I63
sa(dp16
g7
I598
sg8
I63
sasS'hhints'
p17
(lp18
(dp19
g7
I-32
sg8
I64
sa(dp20
g7
I-15
sg8
I64
sa(dp21
g7
I38
sg8
I65
sa(dp22
g7
I126
sg8
I64
sa(dp23
g7
I218
sg8
I64
sa(dp24
g7
I311
sg8
I64
sa(dp25
g7
I397
sg8
I65
sa(dp26
g7
I452
sg8
I64
sa(dp27
g7
I470
sg8
I63
sass."
EndChar

